<?xml version="1.0" encoding="iso-8859-1"?>
<!-- Generator: Adobe Illustrator 19.0.0, SVG Export Plug-In . SVG Version: 6.00 Build 0)  -->
<svg version="1.1" id="Layer_1" xmlns="http://www.w3.org/2000/svg" xmlns:xlink="http://www.w3.org/1999/xlink" x="0px" y="0px"
	 viewBox="0 0 511.997 511.997" style="enable-background:new 0 0 511.997 511.997;" xml:space="preserve">
<path style="fill:#DA4453;" d="M362.653,143.047c0,5.891-4.766,10.672-10.656,10.672H159.999c-5.891,0-10.672-4.781-10.672-10.672
	V10.657c0-5.891,4.781-10.656,10.672-10.656h191.998c5.891,0,10.656,4.766,10.656,10.656V143.047z"/>
<path style="fill:#434A54;" d="M170.187,447.997v-41.422l-5.578-3.016C102.547,369.905,64,305.186,64,234.655
	c0-51.28,19.969-99.499,56.234-135.765c36.265-36.265,84.484-56.234,135.765-56.234s99.498,19.969,135.764,56.234
	s56.234,84.484,56.234,135.765c0,70.734-38.734,135.547-101.061,169.14l-5.609,3.016v41.188h-171.14V447.997z"/>
<g>
	<path style="fill:#656D78;" d="M255.999,32C144.062,32,53.328,122.734,53.328,234.655c0,77,42.953,143.969,106.187,178.28v45.719
		h192.482v-45.469c63.5-34.218,106.656-101.327,106.656-178.53C458.653,122.734,367.919,32,255.999,32z M341.874,394.405
		l-11.219,6.03v12.75v24.141H180.858v-24.391v-12.703l-11.171-6.062c-28.25-15.328-52.031-37.953-68.75-65.453
		c-17.187-28.25-26.281-60.781-26.281-94.062c0-24.484,4.797-48.233,14.25-70.577c9.125-21.594,22.203-40.984,38.875-57.641
		c16.656-16.656,36.047-29.734,57.64-38.875c22.344-9.453,46.078-14.234,70.578-14.234c24.484,0,48.234,4.781,70.578,14.234
		c21.594,9.141,40.982,22.219,57.639,38.875s29.734,36.047,38.875,57.641c9.438,22.344,14.234,46.093,14.234,70.577
		C437.325,301.467,400.747,362.671,341.874,394.405z"/>
	<path style="fill:#656D78;" d="M440.763,253.499l15.094-15.078l-3.766-3.766l1.859-1.859l-15.078-15.094l-1.875,1.875
		l-30.156-30.171l29.297-29.297l-15.094-15.094l-29.297,29.297l-30.172-30.156l38.422-38.422l-15.094-15.078l-38.404,38.406
		L316.327,98.89l28.266-28.266l-15.094-15.077l-28.266,28.266l-30.156-30.172l1.734-1.75l-15.078-15.078l-1.75,1.75l-1.734-1.75
		l-15.094,15.078l1.75,1.75l-30.172,30.172l-25.547-25.547l-15.077,15.078l25.531,25.547l-30.156,30.172l-35.031-35.031
		l-15.094,15.094l35.031,35.031l-30.172,30.156L95.28,149.374l-15.077,15.094l24.937,24.938l-30.171,30.17l-1.859-1.875
		l-15.094,15.094l1.859,1.859l-3.469,3.484l15.078,15.094l3.484-3.484l30.171,30.156l-29.062,29.078l15.078,15.078l29.063-29.062
		l30.172,30.172l-37.719,37.719l15.078,15.078l37.734-37.719l30.156,30.172l-28.25,28.265l15.078,15.078l28.266-28.249
		l40.922,40.921l1.125-1.141l4.344,4.328l44.125-44.124l28.25,28.265l15.094-15.078l-28.266-28.265l30.172-30.172l37.717,37.719
		l15.078-15.078l-37.719-37.719l30.172-30.172l30.156,30.141l15.078-15.078l-30.141-30.156l30.156-30.156L440.763,253.499z
		 M376.669,189.406l-30.17,30.171l-30.172-30.171l30.172-30.172L376.669,189.406z M240.905,234.655l-30.172,30.172l-30.172-30.172
		l30.172-30.172L240.905,234.655z M225.811,189.406l30.172-30.172l30.172,30.172l-30.172,30.171L225.811,189.406z M255.983,249.749
		l30.172,30.156l-30.172,30.172l-30.172-30.172L255.983,249.749z M271.077,234.655l30.172-30.172l30.156,30.172l-30.156,30.172
		L271.077,234.655z M331.405,144.156l-30.156,30.156l-30.172-30.156l30.172-30.172L331.405,144.156z M255.983,68.719l30.172,30.172
		l-30.172,30.172l-30.172-30.172L255.983,68.719z M210.733,113.984l30.172,30.172l-30.172,30.156l-30.172-30.156L210.733,113.984z
		 M165.484,159.234l30.156,30.172l-30.156,30.171l-30.172-30.171L165.484,159.234z M90.046,234.655l30.172-30.172l30.172,30.172
		l-30.172,30.172L90.046,234.655z M135.312,279.905l30.172-30.156l30.156,30.156l-30.156,30.172L135.312,279.905z M180.561,325.171
		l30.172-30.172l30.172,30.172l-30.172,30.172L180.561,325.171z M255.983,400.591l-30.172-30.171l30.172-30.172l30.172,30.172
		L255.983,400.591z M301.249,355.342l-30.172-30.172l30.172-30.172l30.156,30.172L301.249,355.342z M346.499,310.077l-30.172-30.172
		l30.172-30.156l30.17,30.156L346.499,310.077z M391.747,264.827l-30.172-30.172l30.172-30.172l30.172,30.172L391.747,264.827z"/>
</g>
<g>
	<path style="fill:#434A54;" d="M74.656,501.324c0,5.891-4.766,10.672-10.656,10.672s-10.672-4.781-10.672-10.672
		S58.109,490.652,64,490.652S74.656,495.435,74.656,501.324z"/>
	<path style="fill:#434A54;" d="M458.653,501.324c0,5.891-4.766,10.672-10.656,10.672s-10.672-4.781-10.672-10.672
		s4.781-10.672,10.672-10.672S458.653,495.435,458.653,501.324z"/>
</g>
<path style="fill:#ED5564;" d="M447.997,501.324c-64,0-319.998,0-383.997,0S0,415.997,0,415.997h511.997
	C511.997,415.997,511.997,501.324,447.997,501.324z"/>
<path style="fill:#434A54;" d="M266.655,458.654c0,5.891-4.766,10.672-10.656,10.672s-10.672-4.781-10.672-10.672
	s4.781-10.656,10.672-10.656S266.655,452.764,266.655,458.654z"/>
<g>
</g>
<g>
</g>
<g>
</g>
<g>
</g>
<g>
</g>
<g>
</g>
<g>
</g>
<g>
</g>
<g>
</g>
<g>
</g>
<g>
</g>
<g>
</g>
<g>
</g>
<g>
</g>
<g>
</g>
</svg>
